<svg id="svg" version="1.1" xmlns="http://www.w3.org/2000/svg" xmlns:xlink="http://www.w3.org/1999/xlink" width="400" height="408.59999999999997" viewBox="0, 0, 400,408.59999999999997"><g id="svgg"><path id="path0" d="M191.200 56.733 C 178.606 57.408,170.496 58.568,160.000 61.196 C 113.957 72.725,75.352 107.071,58.497 151.500 C 57.533 154.042,57.791 153.795,55.051 154.807 C 44.262 158.795,33.029 167.389,28.918 174.800 C 27.292 177.731,25.809 180.815,25.117 182.700 C 24.713 183.800,24.297 184.880,24.192 185.100 C 22.923 187.747,22.152 196.870,22.790 201.692 C 23.490 206.979,26.233 215.159,28.500 218.719 C 32.657 225.245,41.615 232.000,50.183 235.069 L 52.067 235.744 53.032 239.622 C 53.563 241.755,53.998 243.531,53.999 243.569 C 53.999 243.607,53.371 243.055,52.602 242.343 C 49.572 239.538,46.091 238.340,41.000 238.351 C 24.984 238.387,17.959 254.991,25.725 274.457 C 26.110 275.423,26.461 276.397,26.504 276.622 C 26.954 278.960,32.485 285.997,35.474 288.035 C 40.952 291.771,42.987 292.859,47.000 294.196 C 55.584 297.057,67.049 297.644,78.300 295.799 C 80.308 295.470,80.158 295.384,82.436 298.150 C 102.387 322.370,129.967 339.884,160.000 347.404 C 236.614 366.587,313.944 323.240,337.514 247.900 C 338.031 246.250,338.482 244.866,338.518 244.825 C 338.553 244.784,339.419 244.988,340.441 245.277 C 345.831 246.803,352.469 247.095,358.700 246.080 C 359.800 245.901,360.790 245.686,360.900 245.603 C 361.010 245.520,361.459 245.387,361.898 245.308 C 365.626 244.635,372.320 241.936,375.599 239.784 C 385.266 233.440,391.308 223.434,391.289 213.800 C 391.269 203.798,386.931 197.414,379.650 196.671 C 378.962 196.600,378.399 196.488,378.397 196.422 C 378.392 196.226,379.198 191.781,379.408 190.847 C 380.025 188.103,379.251 181.498,377.806 177.185 C 372.582 161.594,356.009 155.352,339.089 162.605 L 338.233 162.972 337.404 160.336 C 319.501 103.404,269.606 62.929,210.400 57.309 C 204.278 56.728,195.956 56.478,191.200 56.733 M204.900 68.204 C 262.880 72.030,312.613 112.178,327.705 167.343 L 328.264 169.385 326.441 171.243 C 323.343 174.399,321.125 177.453,318.953 181.551 C 317.873 183.588,317.864 183.599,317.616 183.051 C 313.856 174.745,303.396 169.250,292.812 170.023 C 271.410 171.586,255.714 190.131,255.702 213.869 L 255.700 218.838 253.700 216.688 C 252.600 215.506,249.900 212.882,247.700 210.858 C 240.394 204.137,240.656 204.848,242.659 197.200 C 244.886 188.691,243.334 183.151,237.997 180.570 C 231.267 177.315,218.807 180.410,213.609 186.628 C 211.086 189.646,210.596 190.870,208.488 199.400 C 205.777 210.373,203.667 217.721,202.056 221.800 C 200.581 225.537,195.248 236.262,194.050 237.900 C 193.707 238.370,193.778 233.577,194.322 219.500 C 195.060 200.429,194.553 196.326,191.017 192.779 C 185.134 186.880,170.799 189.573,165.576 197.558 C 163.592 200.592,162.974 202.887,162.209 210.049 C 161.539 216.323,160.741 222.266,160.638 221.743 C 160.600 221.547,160.719 219.342,160.904 216.843 C 161.375 210.482,161.383 205.870,160.927 204.217 C 158.706 196.183,150.880 193.421,140.604 197.045 C 130.484 200.614,127.559 207.095,126.637 228.000 L 126.500 231.100 125.667 229.590 C 122.701 224.215,117.075 219.029,110.200 215.335 C 105.259 212.679,97.313 210.290,82.800 207.094 C 67.799 203.791,63.300 202.215,60.615 199.322 L 60.130 198.799 60.371 195.250 C 60.800 188.936,60.926 188.188,61.663 187.543 C 66.715 183.124,80.331 180.405,86.944 182.494 C 89.531 183.311,89.698 183.588,89.996 187.548 C 90.593 195.468,90.750 196.498,91.733 198.974 C 96.603 211.228,115.320 212.251,122.132 200.636 C 125.409 195.048,126.123 186.966,124.174 177.510 C 119.921 156.872,98.956 145.933,72.050 150.313 C 71.011 150.482,70.996 150.688,72.220 147.975 C 95.359 96.692,148.888 64.508,204.900 68.204 M91.500 157.771 C 109.046 160.501,118.890 172.741,117.393 189.966 C 116.700 197.950,111.222 202.583,104.589 200.797 C 99.688 199.477,98.413 197.003,97.793 187.610 C 97.470 182.708,97.000 181.011,95.372 178.876 C 89.207 170.789,64.827 173.239,55.300 182.904 C 49.230 189.061,49.223 198.950,55.285 204.900 C 59.871 209.402,64.101 210.960,83.000 215.109 C 101.249 219.115,107.312 221.542,114.171 227.587 C 123.477 235.787,125.629 253.341,118.793 265.290 C 110.757 279.334,89.304 288.872,65.700 288.894 C 44.786 288.914,33.519 280.793,30.887 263.800 C 29.182 252.796,33.195 246.029,41.440 246.003 C 47.550 245.985,49.689 248.852,50.186 257.724 C 50.544 264.113,51.172 266.006,53.730 268.398 C 56.786 271.257,61.198 272.346,68.900 272.140 C 91.445 271.538,105.722 261.058,101.833 247.963 C 99.607 240.470,94.158 237.588,74.100 233.297 C 56.857 229.608,50.622 227.561,44.720 223.651 C 36.023 217.888,31.785 210.889,30.616 200.358 C 28.108 177.777,48.010 160.001,78.800 157.322 C 81.261 157.108,88.994 157.382,91.500 157.771 M358.089 167.991 C 366.146 170.083,371.173 177.135,371.546 186.867 C 372.047 199.973,363.506 209.886,344.600 218.140 C 344.101 218.358,344.102 218.360,345.500 219.741 C 348.832 223.032,353.657 224.014,359.140 222.516 C 365.090 220.890,368.420 217.688,373.298 208.900 C 376.424 203.270,380.144 202.689,382.316 207.491 C 387.019 217.887,377.592 232.380,363.200 236.878 C 351.067 240.670,340.294 239.052,332.500 232.268 L 330.900 230.876 328.300 233.496 C 318.324 243.553,308.431 248.146,295.500 248.726 C 287.348 249.092,280.216 246.858,274.590 242.176 C 273.916 241.615,273.292 241.233,273.203 241.328 C 273.114 241.423,272.579 242.085,272.014 242.800 C 267.103 249.011,261.123 252.645,252.094 254.906 C 249.969 255.438,249.906 255.471,248.942 256.525 C 243.055 262.967,231.045 265.383,224.431 261.457 C 219.267 258.392,217.349 253.217,219.616 248.466 C 221.593 244.324,225.238 242.639,233.144 242.209 C 237.319 241.982,236.962 242.242,236.204 239.980 C 234.659 235.368,230.386 230.099,224.247 225.238 L 223.435 224.594 222.793 226.547 C 216.666 245.173,205.555 261.075,195.388 265.770 C 182.119 271.898,173.906 267.462,170.514 252.335 L 170.064 250.331 169.831 252.382 C 166.647 280.383,141.044 281.755,136.313 254.179 C 134.162 241.637,133.826 230.668,135.213 218.300 C 136.341 208.247,138.116 205.606,144.900 203.887 C 153.205 201.783,154.240 203.439,153.068 216.967 C 152.622 222.114,152.552 239.333,152.960 243.411 C 153.556 249.363,154.621 251.532,156.923 251.481 C 162.208 251.365,167.477 234.775,170.003 210.300 C 171.001 200.622,173.911 197.581,182.234 197.518 C 187.036 197.481,187.330 199.019,186.522 220.000 C 185.581 244.456,185.941 248.537,189.189 250.195 C 193.961 252.629,200.204 245.134,208.114 227.475 C 210.491 222.170,213.671 211.519,216.609 199.022 C 218.562 190.715,221.277 188.295,229.891 187.183 C 235.937 186.402,237.084 188.464,234.902 196.191 C 232.140 205.976,232.825 207.763,242.900 217.037 C 246.672 220.510,250.498 224.572,251.967 226.665 C 254.207 229.857,255.056 232.394,255.711 237.851 L 255.825 238.802 256.762 238.158 C 260.355 235.690,265.795 229.005,265.317 227.644 C 258.786 209.027,267.781 186.334,284.224 179.949 C 298.975 174.221,310.646 179.818,313.120 193.808 C 315.553 207.562,307.043 219.108,288.200 227.619 C 287.155 228.091,286.255 228.515,286.200 228.560 C 285.992 228.731,288.636 230.963,289.743 231.550 C 293.647 233.620,299.766 233.715,305.059 231.789 C 309.838 230.049,315.544 226.075,320.326 221.154 C 323.731 217.651,323.544 218.061,322.926 215.456 C 317.420 192.288,329.212 170.746,349.000 167.823 C 349.825 167.701,350.725 167.562,351.000 167.514 C 352.217 167.301,356.557 167.593,358.089 167.991 M347.781 183.170 C 341.713 185.165,338.029 195.081,339.576 205.257 C 339.891 207.326,339.637 207.293,342.809 205.680 C 351.265 201.380,355.896 195.828,355.886 190.000 C 355.877 184.542,352.433 181.640,347.781 183.170 M290.050 193.309 C 284.547 194.791,280.311 203.665,281.099 212.061 C 281.465 215.965,281.657 217.200,281.898 217.200 C 284.045 217.200,292.854 210.870,295.085 207.724 C 300.430 200.187,297.342 191.346,290.050 193.309 M68.700 240.095 C 90.850 244.752,94.495 246.448,94.499 252.100 C 94.501 255.938,91.682 258.851,85.700 261.189 C 82.218 262.550,74.262 264.342,73.792 263.872 C 72.697 262.777,67.487 249.330,65.488 242.441 C 64.460 238.900,64.502 239.144,64.950 239.277 C 65.142 239.334,66.830 239.702,68.700 240.095 M325.316 248.850 C 301.512 316.467,231.069 354.119,161.882 336.205 C 136.245 329.568,112.319 314.914,94.622 295.013 L 92.588 292.725 95.544 291.694 C 112.783 285.680,124.453 275.245,128.729 262.022 L 129.466 259.744 130.002 261.522 C 136.692 283.714,159.420 289.016,171.547 271.214 C 171.580 271.166,171.897 271.403,172.253 271.739 C 178.052 277.225,188.439 277.622,198.810 272.753 C 203.457 270.572,207.598 267.328,211.807 262.571 L 213.160 261.043 213.811 262.047 C 221.181 273.421,240.610 274.237,252.714 263.681 C 253.885 262.660,254.390 262.362,255.382 262.105 C 261.804 260.441,268.682 256.950,272.897 253.215 C 274.783 251.545,274.381 251.615,276.389 252.606 C 288.114 258.396,304.124 257.770,317.785 250.987 C 320.511 249.633,325.585 246.509,325.909 245.985 C 326.460 245.094,326.205 246.323,325.316 248.850 M59.390 259.347 C 60.136 261.206,60.856 262.931,60.990 263.181 C 61.336 263.828,61.153 263.887,60.167 263.444 C 58.885 262.868,58.416 262.252,58.212 260.881 C 57.972 259.265,57.758 255.691,57.910 255.843 C 57.978 255.911,58.644 257.488,59.390 259.347 " stroke="none" fill="#fbfbeb" fill-rule="evenodd"></path><path id="path1" d="M193.800 5.439 C 190.840 8.653,190.716 9.325,192.734 11.220 C 194.462 12.844,195.333 13.004,196.710 11.950 C 198.348 10.696,198.836 9.222,198.090 7.781 C 197.821 7.261,195.413 3.791,195.331 3.805 C 195.314 3.808,194.625 4.543,193.800 5.439 M224.773 6.150 C 222.202 8.788,222.094 9.651,224.074 11.741 L 225.349 13.087 226.790 11.922 C 229.420 9.797,229.515 9.152,227.589 6.501 C 226.111 4.466,226.382 4.500,224.773 6.150 M162.855 6.804 C 160.336 8.892,160.326 9.148,162.660 12.240 L 163.972 13.979 165.314 12.447 C 167.615 9.819,167.663 8.981,165.635 6.837 C 164.236 5.357,164.595 5.361,162.855 6.804 M177.631 20.211 C 172.726 23.486,173.626 29.784,179.000 29.794 C 180.586 29.797,181.622 29.353,184.192 27.573 L 186.000 26.320 186.000 24.775 L 186.000 23.230 184.450 21.895 C 181.211 19.107,179.805 18.760,177.631 20.211 M208.452 20.311 C 203.603 22.728,204.132 29.480,209.193 29.766 C 210.922 29.863,211.916 29.441,214.776 27.397 L 216.800 25.951 216.786 24.725 L 216.772 23.500 214.877 22.100 C 211.485 19.595,210.462 19.310,208.452 20.311 M147.500 20.534 C 145.752 21.460,144.350 23.080,144.112 24.450 C 143.688 26.894,147.764 30.100,150.056 29.127 C 150.737 28.838,155.657 25.279,155.760 25.001 C 155.849 24.761,151.622 21.026,150.758 20.582 C 149.854 20.117,148.330 20.094,147.500 20.534 M240.435 20.537 C 239.793 20.853,236.500 24.253,236.500 24.600 C 236.500 25.907,240.622 29.480,241.965 29.338 C 242.855 29.243,243.086 29.103,246.700 26.472 C 248.952 24.833,248.956 25.149,246.659 23.092 C 243.383 20.159,242.193 19.670,240.435 20.537 M116.976 21.669 C 115.748 22.120,112.334 24.319,112.438 24.591 C 112.543 24.862,115.957 27.394,116.494 27.598 C 118.331 28.296,121.458 26.051,120.993 24.369 C 120.430 22.329,118.574 21.081,116.976 21.669 M271.500 21.780 C 268.750 23.056,268.384 25.031,270.533 26.996 C 272.338 28.645,273.027 28.552,276.250 26.225 C 278.115 24.879,278.103 25.138,276.369 23.693 C 273.287 21.123,273.086 21.044,271.500 21.780 M132.350 33.241 C 131.938 33.350,131.600 33.499,131.600 33.571 C 131.600 33.644,130.924 34.557,130.099 35.601 C 127.443 38.960,126.810 41.007,127.779 43.100 C 129.445 46.697,135.931 47.171,138.199 43.860 C 140.009 41.219,139.413 38.713,136.079 34.950 C 134.201 32.830,134.089 32.779,132.350 33.241 M193.400 33.305 C 189.547 34.369,187.113 39.412,188.855 42.723 L 189.183 43.347 186.841 43.483 C 181.847 43.774,175.945 44.417,171.046 45.205 C 169.696 45.422,168.492 45.600,168.370 45.600 C 168.249 45.600,168.513 45.205,168.958 44.723 C 174.131 39.110,167.811 30.725,161.018 34.191 C 155.933 36.785,157.066 45.360,162.626 46.372 L 163.500 46.531 161.900 46.883 C 161.020 47.076,158.603 47.667,156.529 48.197 L 152.758 49.159 151.907 48.783 C 148.261 47.170,143.817 48.561,142.245 51.806 C 141.870 52.581,141.670 52.752,140.756 53.073 C 132.238 56.062,120.849 61.587,112.146 66.951 L 109.192 68.772 108.717 67.836 C 107.004 64.463,102.669 63.032,99.453 64.776 C 94.978 67.203,93.909 72.412,97.194 75.776 L 98.049 76.651 97.375 77.176 C 97.005 77.464,95.687 78.533,94.448 79.550 C 91.818 81.709,92.225 81.569,91.089 80.702 C 84.672 75.804,76.319 84.458,81.254 90.891 C 81.536 91.258,81.397 91.448,78.962 94.017 L 76.371 96.753 75.371 96.080 C 68.254 91.291,60.236 101.005,66.523 106.799 L 67.445 107.650 66.632 108.775 C 66.186 109.394,65.037 111.016,64.080 112.381 L 62.341 114.862 61.961 114.121 C 60.829 111.916,58.949 110.900,56.000 110.900 C 47.478 110.900,46.568 122.835,54.984 124.225 L 56.388 124.457 55.186 126.678 C 50.377 135.566,46.627 144.139,43.584 153.202 L 42.342 156.900 40.521 156.907 C 35.573 156.924,32.057 161.872,33.669 166.548 C 34.172 168.006,34.239 168.003,35.861 166.467 C 40.747 161.841,47.698 157.567,54.829 154.805 L 57.558 153.748 58.308 151.724 C 73.723 110.131,109.720 76.379,152.810 63.113 C 229.749 39.428,311.513 81.635,336.747 158.062 C 337.589 160.613,338.294 162.726,338.314 162.758 C 338.333 162.790,339.030 162.546,339.861 162.215 C 343.667 160.704,347.978 159.807,352.292 159.631 L 355.485 159.500 354.692 158.729 C 353.747 157.810,352.338 157.059,351.225 156.881 L 350.418 156.752 349.384 153.626 C 346.272 144.212,341.590 133.551,337.144 125.755 L 336.034 123.809 336.726 123.618 C 341.631 122.264,343.001 115.875,339.158 112.280 C 336.569 109.858,332.517 109.783,329.757 112.106 C 328.966 112.771,329.124 112.892,327.100 110.073 C 326.110 108.694,325.183 107.403,325.040 107.205 C 324.818 106.896,324.865 106.711,325.373 105.910 C 328.903 100.344,322.919 93.190,316.542 95.351 C 315.412 95.734,315.377 95.734,315.121 95.370 C 314.977 95.164,313.696 93.803,312.274 92.346 L 309.689 89.696 310.078 88.698 C 312.323 82.942,306.299 77.143,300.769 79.737 L 299.439 80.361 296.669 78.161 C 295.146 76.952,293.830 75.896,293.744 75.815 C 293.658 75.734,293.903 75.145,294.288 74.506 C 296.018 71.633,295.698 68.616,293.396 66.119 C 290.532 63.011,285.190 63.457,282.610 67.018 L 282.071 67.762 279.485 66.210 C 278.063 65.356,275.822 64.060,274.505 63.329 C 272.566 62.253,272.223 62.000,272.705 61.998 C 275.990 61.985,278.540 59.785,278.755 56.777 C 279.126 51.599,276.592 48.813,271.721 49.040 C 266.878 49.265,264.203 53.771,266.200 58.337 L 266.566 59.175 265.033 58.462 C 260.334 56.277,252.723 53.185,249.189 52.024 C 248.124 51.674,247.634 51.355,246.579 50.326 C 244.547 48.343,241.801 47.639,239.031 48.390 C 238.240 48.605,237.829 48.545,234.431 47.726 C 232.379 47.232,230.311 46.753,229.835 46.663 L 228.970 46.500 230.035 45.800 C 234.049 43.161,233.499 36.288,229.113 34.280 C 222.851 31.413,217.342 37.576,220.571 43.836 C 220.924 44.520,221.074 44.999,220.936 44.999 C 220.806 44.998,219.395 44.823,217.800 44.610 C 213.850 44.082,208.869 43.630,205.500 43.493 C 203.960 43.430,202.414 43.336,202.064 43.283 L 201.428 43.187 201.837 42.263 C 204.003 37.367,198.778 31.820,193.400 33.305 M254.066 34.912 C 251.979 37.171,251.303 38.257,251.035 39.781 C 249.966 45.848,258.503 48.591,262.120 43.343 C 263.698 41.053,263.058 38.624,259.813 34.586 L 258.539 33.000 257.185 33.000 L 255.832 33.000 254.066 34.912 M101.400 36.816 C 98.119 39.222,97.622 40.335,98.987 42.216 C 99.419 42.812,100.296 44.050,100.934 44.966 L 102.095 46.633 102.897 45.669 C 103.339 45.139,104.224 44.137,104.864 43.443 C 107.043 41.079,106.999 40.627,104.321 37.879 L 102.500 36.009 101.400 36.816 M286.392 36.554 C 283.657 38.313,283.173 40.008,284.797 42.141 C 286.583 44.487,287.988 44.912,289.841 43.667 C 291.445 42.589,294.602 40.164,294.589 40.020 C 294.578 39.911,293.559 39.167,290.365 36.937 C 288.803 35.846,287.664 35.736,286.392 36.554 M85.200 50.294 C 81.278 55.072,81.288 55.629,85.359 59.227 L 87.087 60.754 88.793 59.299 C 92.740 55.934,92.771 55.653,89.653 51.494 C 88.579 50.061,87.565 48.684,87.400 48.434 C 87.104 47.986,87.073 48.012,85.200 50.294 M115.635 49.286 C 110.400 50.987,110.008 59.221,115.057 61.409 C 121.829 64.344,127.472 56.508,122.685 50.819 C 121.390 49.279,117.953 48.532,115.635 49.286 M303.700 49.600 C 303.480 49.695,302.962 49.778,302.549 49.786 C 301.739 49.801,301.246 50.241,299.451 52.552 C 297.534 55.020,297.809 55.962,301.304 58.891 L 303.547 60.771 305.526 59.104 C 309.057 56.130,309.181 55.099,306.404 51.793 C 305.714 50.972,305.016 50.098,304.852 49.850 C 304.534 49.370,304.335 49.327,303.700 49.600 M68.939 66.369 C 65.820 69.968,65.723 71.112,68.297 73.960 C 70.482 76.377,72.110 76.302,74.622 73.666 C 77.091 71.075,77.058 70.253,74.342 66.664 L 72.931 64.800 71.615 64.800 L 70.300 64.800 68.939 66.369 M317.107 67.120 C 313.297 70.129,312.977 71.261,315.115 74.171 C 315.767 75.059,316.480 76.055,316.700 76.385 C 317.081 76.956,317.169 76.985,318.518 76.992 L 319.935 77.000 321.218 75.365 C 324.680 70.950,324.668 70.483,321.004 67.323 L 319.018 65.610 317.107 67.120 M331.768 83.350 C 328.429 86.730,328.420 86.898,331.406 90.394 C 332.282 91.421,333.000 92.337,333.000 92.430 C 333.000 92.524,333.614 92.600,334.366 92.600 L 335.731 92.600 337.200 90.659 C 340.316 86.542,340.194 85.966,335.417 82.209 C 333.831 80.962,334.262 80.827,331.768 83.350 M53.775 82.173 C 50.415 84.304,50.109 87.437,53.020 89.887 C 55.352 91.848,56.527 91.666,60.010 88.800 L 61.834 87.300 61.746 86.343 C 61.641 85.205,61.355 84.864,59.216 83.323 C 56.665 81.487,55.308 81.200,53.775 82.173 M348.300 97.363 C 346.171 98.357,344.758 100.510,345.302 101.932 C 346.482 105.023,350.063 107.004,352.072 105.677 C 356.284 102.894,356.593 101.598,353.600 99.249 C 350.798 97.050,349.762 96.681,348.300 97.363 M40.400 97.544 C 39.677 97.816,38.917 98.540,37.424 100.382 L 35.827 102.353 37.663 104.149 C 41.020 107.431,41.365 107.407,45.400 103.610 C 47.228 101.890,47.285 101.811,46.893 101.530 C 46.669 101.369,45.769 100.639,44.893 99.908 C 42.125 97.599,41.345 97.189,40.400 97.544 M24.080 113.965 C 23.651 114.276,22.833 115.069,22.262 115.728 L 21.225 116.926 22.230 118.413 C 24.732 122.113,25.300 122.180,29.082 119.230 L 30.966 117.761 29.633 116.511 C 25.914 113.025,25.585 112.874,24.080 113.965 M363.536 114.397 C 360.957 116.033,360.889 117.360,363.229 120.437 C 363.872 121.282,364.590 122.298,364.824 122.695 C 365.365 123.612,365.232 123.700,367.374 121.004 C 369.511 118.316,369.683 117.819,368.925 116.525 C 367.538 114.158,365.304 113.276,363.536 114.397 M38.771 126.972 C 33.510 128.336,32.428 135.616,37.100 138.215 C 41.762 140.808,46.651 138.198,46.678 133.100 C 46.703 128.522,43.216 125.820,38.771 126.972 M348.096 126.794 C 342.804 127.592,341.513 135.767,346.286 138.253 C 349.297 139.820,353.758 138.552,355.198 135.720 C 357.719 130.763,353.867 125.923,348.096 126.794 M379.900 130.272 C 379.297 130.545,377.400 132.431,377.400 132.758 C 377.400 132.854,378.065 133.578,378.879 134.366 C 380.877 136.304,381.068 136.287,383.604 133.932 L 384.862 132.764 383.981 131.989 C 381.915 130.170,380.987 129.780,379.900 130.272 M362.600 143.454 C 360.311 146.589,360.010 147.085,359.787 148.081 C 358.926 151.926,362.400 154.789,366.620 153.712 C 370.517 152.717,371.420 148.847,368.608 145.200 C 368.141 144.595,367.445 143.672,367.061 143.150 L 366.362 142.200 364.931 142.211 L 363.500 142.222 362.600 143.454 M22.601 143.506 C 19.368 144.965,18.956 151.447,21.998 152.999 C 24.025 154.033,25.993 153.667,28.400 151.809 C 29.005 151.341,29.927 150.645,30.450 150.261 C 31.393 149.568,31.400 149.554,31.388 148.431 L 31.376 147.300 29.200 145.700 C 26.007 143.353,24.242 142.766,22.601 143.506 M80.600 157.321 C 56.438 158.945,37.705 170.000,32.338 185.800 C 28.477 197.167,31.044 210.889,38.436 218.402 C 45.631 225.716,52.419 228.567,73.200 233.005 C 87.808 236.124,91.627 237.343,96.134 240.324 C 104.318 245.735,104.700 257.054,96.922 263.676 C 87.851 271.399,65.767 274.971,56.230 270.259 C 51.944 268.141,50.589 265.401,50.100 257.865 C 49.508 248.756,47.895 246.440,42.000 246.236 C 32.554 245.910,28.635 253.526,31.529 266.584 C 35.540 284.680,52.499 292.198,79.146 287.694 C 110.946 282.320,127.593 263.842,121.602 240.568 C 118.050 226.771,109.194 220.951,83.000 215.201 C 66.297 211.534,62.784 210.416,58.006 207.247 C 50.378 202.187,48.359 192.430,53.402 185.000 C 60.430 174.645,85.993 170.043,94.302 177.637 C 96.946 180.053,97.559 181.948,98.008 189.100 C 98.376 194.945,98.845 196.628,100.595 198.374 C 105.025 202.793,113.098 201.396,115.860 195.732 C 118.645 190.022,117.419 177.687,113.403 171.005 C 107.795 161.674,95.033 156.350,80.600 157.321 M8.173 160.251 C 7.773 160.498,6.579 161.375,5.519 162.200 L 3.593 163.700 4.646 164.662 C 8.701 168.363,9.459 168.287,13.346 163.797 L 13.781 163.294 12.633 161.939 C 10.758 159.725,9.683 159.318,8.173 160.251 M379.392 160.153 C 378.510 160.603,374.766 163.607,374.843 163.804 C 375.006 164.225,378.916 167.407,379.512 167.604 C 380.556 167.949,381.671 167.318,383.391 165.410 C 385.078 163.538,385.056 163.911,383.592 162.107 C 381.645 159.705,380.926 159.371,379.392 160.153 M348.900 167.912 C 328.710 171.649,317.107 193.182,323.106 215.777 L 323.605 217.653 322.863 218.577 C 312.033 232.059,295.110 237.365,287.181 229.763 C 285.890 228.526,285.688 228.751,289.951 226.670 C 308.938 217.401,316.232 205.979,312.468 191.407 C 309.491 179.881,298.875 175.076,285.952 179.405 C 268.785 185.157,259.713 205.156,264.912 225.788 L 265.595 228.500 264.962 229.400 C 261.994 233.617,256.998 238.800,255.901 238.800 C 255.776 238.800,255.587 237.866,255.446 236.550 C 254.663 229.225,252.389 226.001,239.361 213.744 C 233.050 207.806,232.321 205.018,234.786 196.229 C 237.086 188.023,235.746 186.214,228.325 187.512 C 220.849 188.819,218.535 191.165,216.597 199.400 C 212.045 218.738,209.533 225.823,202.748 238.461 C 195.826 251.354,188.668 254.689,186.448 246.054 C 186.023 244.400,185.973 229.015,186.366 220.800 C 187.380 199.626,187.002 197.461,182.300 197.529 C 174.057 197.648,171.028 200.796,170.108 210.200 C 167.720 234.606,162.262 251.500,156.766 251.500 C 154.684 251.500,153.765 249.920,153.046 245.100 C 152.615 242.211,152.546 220.882,152.956 217.200 C 153.097 215.935,153.268 212.994,153.337 210.665 L 153.462 206.430 152.935 205.354 C 150.946 201.289,140.179 203.794,137.441 208.960 C 132.643 218.010,133.886 253.069,139.387 263.874 C 148.656 282.081,167.307 274.809,169.782 252.024 C 169.894 250.992,170.019 250.115,170.059 250.075 C 170.099 250.034,170.334 250.966,170.581 252.144 C 173.771 267.343,182.157 271.875,195.513 265.616 C 205.389 260.989,215.615 246.598,222.102 228.200 C 223.542 224.116,223.321 224.309,224.942 225.715 C 231.772 231.639,234.801 235.416,236.298 239.874 C 237.111 242.297,237.315 242.118,233.550 242.284 C 223.225 242.737,218.444 246.215,218.851 252.973 C 219.551 264.578,237.916 267.013,248.400 256.891 C 250.080 255.269,250.119 255.245,251.700 254.905 C 260.078 253.103,267.079 248.935,271.795 242.942 L 273.291 241.042 273.895 241.538 C 280.225 246.724,285.348 248.498,294.000 248.499 C 307.488 248.501,317.293 244.243,327.837 233.805 L 330.973 230.700 332.353 232.001 C 339.668 238.898,351.335 240.657,363.529 236.702 C 375.858 232.703,384.638 221.377,383.220 211.300 C 382.452 205.843,379.846 203.320,376.634 204.921 C 375.386 205.542,375.044 205.970,373.285 209.100 C 368.923 216.862,365.804 220.225,361.425 221.887 C 355.033 224.313,349.314 223.592,345.466 219.875 C 343.848 218.311,343.789 218.435,346.837 217.022 C 366.777 207.777,374.777 195.479,370.485 180.667 C 367.702 171.064,359.156 166.014,348.900 167.912 M23.400 173.310 C 18.183 174.763,17.504 182.035,22.357 184.474 C 24.175 185.388,24.068 185.437,24.786 183.355 C 25.538 181.176,27.435 177.152,28.482 175.515 C 29.333 174.184,29.276 174.000,27.860 173.517 C 26.459 173.040,24.667 172.957,23.400 173.310 M351.688 182.886 C 358.001 184.786,357.437 194.032,350.616 200.449 C 348.158 202.761,340.335 207.602,339.846 207.113 C 338.854 206.120,339.087 196.657,340.205 192.600 C 342.056 185.878,347.192 181.533,351.688 182.886 M379.777 190.326 C 379.539 190.394,379.417 190.776,379.318 191.760 C 379.198 192.940,378.786 195.060,378.486 196.035 C 378.401 196.311,378.585 196.394,379.541 196.511 C 380.179 196.589,381.325 196.863,382.088 197.119 C 383.663 197.649,383.764 197.614,384.390 196.321 C 385.024 195.012,384.940 193.815,384.142 192.766 C 382.965 191.218,380.826 190.023,379.777 190.326 M8.867 191.012 C 7.891 191.496,6.152 193.267,5.678 194.262 C 5.216 195.230,5.412 195.774,6.734 197.202 C 9.037 199.690,9.716 199.639,14.058 196.654 L 16.372 195.064 14.070 193.182 C 10.710 190.434,10.344 190.282,8.867 191.012 M294.300 193.393 C 297.969 195.156,298.962 200.711,296.487 205.626 C 294.549 209.474,289.847 213.520,284.037 216.341 C 281.359 217.641,281.658 217.800,281.270 214.876 C 280.163 206.531,282.627 197.910,287.047 194.665 C 289.197 193.087,292.469 192.513,294.300 193.393 M22.209 204.715 C 19.736 205.788,18.854 207.677,19.206 211.148 C 19.615 215.191,22.506 217.289,26.554 216.479 L 27.159 216.358 26.302 214.426 C 25.216 211.976,24.375 209.448,23.800 206.900 C 23.222 204.337,23.240 204.399,23.056 204.408 C 22.970 204.412,22.589 204.551,22.209 204.715 M8.895 221.789 C 8.398 221.991,7.247 223.154,6.168 224.546 L 5.357 225.593 6.215 226.646 C 9.212 230.328,9.834 230.409,13.407 227.587 C 16.233 225.356,16.191 225.711,13.846 223.935 C 10.876 221.686,10.042 221.324,8.895 221.789 M33.443 226.012 C 33.624 228.279,34.876 230.385,36.796 231.656 L 37.739 232.280 38.288 235.240 L 38.837 238.200 41.268 238.204 C 46.020 238.213,49.822 239.605,52.983 242.493 C 53.788 243.228,53.854 243.256,53.732 242.800 C 53.659 242.525,53.276 240.950,52.881 239.300 C 52.487 237.650,52.136 236.205,52.103 236.089 C 52.070 235.972,51.020 235.487,49.771 235.011 C 44.354 232.944,38.693 229.520,34.900 226.017 C 33.283 224.523,33.323 224.524,33.443 226.012 M23.800 234.564 C 23.800 234.654,23.150 235.531,22.356 236.512 C 19.580 239.944,19.016 241.615,19.911 243.756 C 20.911 246.152,25.085 247.664,26.075 245.989 C 26.762 244.826,28.337 243.096,29.516 242.211 C 30.167 241.721,30.778 241.257,30.873 241.178 C 31.174 240.928,30.106 238.957,28.771 237.300 C 28.062 236.420,27.278 235.407,27.028 235.050 C 26.583 234.415,23.800 233.996,23.800 234.564 M371.400 242.102 C 369.899 242.965,363.715 245.085,361.535 245.484 C 360.188 245.730,361.910 246.937,363.902 247.143 C 365.672 247.325,372.000 243.523,372.000 242.276 C 372.000 242.014,371.978 241.803,371.950 241.807 C 371.923 241.811,371.675 241.944,371.400 242.102 M338.521 244.977 C 338.483 245.045,338.161 246.090,337.805 247.300 C 317.639 315.890,248.184 360.403,176.476 350.693 C 139.633 345.705,105.960 326.899,82.301 298.100 C 81.217 296.780,80.315 295.678,80.298 295.650 C 80.281 295.623,79.375 295.733,78.284 295.894 C 75.151 296.358,70.547 296.773,67.500 296.865 C 65.960 296.912,64.700 296.997,64.700 297.054 C 64.700 297.266,67.784 301.387,70.416 304.691 C 84.476 322.341,101.917 336.702,122.193 347.326 L 125.961 349.300 126.198 350.500 C 127.257 355.861,132.390 358.133,137.069 355.311 L 138.237 354.607 141.769 355.882 C 143.711 356.584,145.960 357.367,146.767 357.624 L 148.234 358.090 146.702 358.555 C 139.887 360.628,141.381 370.800,148.500 370.800 C 154.234 370.800,157.045 364.331,153.076 360.267 C 152.478 359.654,152.143 359.212,152.331 359.284 C 154.275 360.030,164.384 362.303,169.300 363.100 C 171.060 363.385,172.680 363.656,172.900 363.701 C 173.259 363.775,173.302 363.952,173.320 365.442 C 173.363 369.088,175.173 370.973,178.810 371.158 C 182.942 371.368,185.260 369.853,186.116 366.383 L 186.433 365.100 189.666 365.261 C 191.445 365.350,195.346 365.391,198.336 365.353 L 203.771 365.283 203.903 365.991 C 204.449 368.931,206.794 370.895,210.052 371.140 C 214.278 371.459,216.837 369.403,216.905 365.635 L 216.932 364.128 220.116 363.669 C 224.736 363.003,233.725 361.205,236.048 360.482 C 236.342 360.391,236.313 360.539,235.860 361.437 C 232.918 367.262,238.618 373.307,244.311 370.400 C 248.980 368.016,248.304 359.661,243.379 358.873 C 242.677 358.761,243.056 358.601,247.654 357.062 L 252.700 355.374 253.800 355.912 C 257.591 357.765,263.947 354.682,263.996 350.966 C 263.999 350.734,264.937 350.177,267.050 349.152 C 282.639 341.590,297.001 331.374,309.623 318.870 L 313.346 315.181 313.063 316.241 C 312.734 317.470,312.853 319.769,313.322 321.234 C 314.890 326.128,323.055 326.037,324.741 321.106 C 326.742 315.253,321.531 310.517,315.835 313.012 L 314.969 313.391 316.639 311.546 C 328.515 298.423,339.238 281.238,345.721 264.942 L 346.500 262.984 347.200 263.142 C 349.804 263.730,352.813 263.149,354.311 261.768 C 358.096 258.279,356.202 250.414,351.573 250.402 L 350.847 250.400 351.323 248.760 C 351.585 247.858,351.800 247.062,351.800 246.991 C 351.800 246.919,350.653 246.800,349.250 246.726 C 345.932 246.550,343.109 246.123,340.607 245.421 C 339.497 245.109,338.559 244.910,338.521 244.977 M8.449 253.262 C 6.182 255.584,6.102 256.521,8.010 258.429 C 9.522 259.941,10.404 259.964,11.901 258.530 C 13.192 257.293,13.150 256.736,11.548 253.856 C 10.058 251.176,10.418 251.245,8.449 253.262 M379.154 253.896 C 377.598 254.696,375.147 256.428,375.330 256.599 C 375.835 257.073,378.698 259.266,379.253 259.604 C 381.461 260.950,384.610 258.416,383.532 256.161 C 382.319 253.625,381.005 252.945,379.154 253.896 M58.108 258.500 C 58.227 260.779,58.472 262.096,58.870 262.583 C 59.117 262.886,60.784 263.683,60.909 263.558 C 60.974 263.493,58.715 257.803,58.186 256.700 C 58.057 256.433,58.032 257.030,58.108 258.500 M363.595 267.530 C 360.031 269.910,359.769 272.339,362.783 275.048 C 364.863 276.916,365.945 276.814,368.757 274.482 L 370.600 272.954 370.600 271.714 L 370.600 270.474 368.850 269.160 C 366.144 267.126,364.816 266.715,363.595 267.530 M22.246 269.956 C 20.197 271.930,20.274 272.539,23.040 276.250 C 24.882 278.722,24.699 278.625,25.659 277.642 C 26.562 276.717,26.561 276.820,25.687 274.661 C 25.295 273.693,24.723 272.004,24.415 270.909 C 23.737 268.495,23.754 268.503,22.246 269.956 M346.645 282.623 C 343.672 284.095,343.418 287.058,345.948 290.765 C 346.674 291.829,347.455 292.989,347.684 293.342 C 348.087 293.964,348.142 293.983,349.500 293.979 L 350.900 293.975 352.100 292.344 C 354.843 288.617,355.161 287.773,354.437 286.137 C 353.011 282.913,349.374 281.273,346.645 282.623 M34.900 287.953 C 35.010 288.034,35.260 288.445,35.455 288.867 C 36.662 291.476,39.939 293.310,42.323 292.712 C 42.850 292.580,42.790 292.525,41.291 291.761 C 39.609 290.905,36.683 289.068,35.735 288.274 C 35.424 288.013,35.064 287.801,34.935 287.803 C 34.786 287.805,34.774 287.860,34.900 287.953 M331.893 297.118 C 328.093 298.468,327.129 304.456,330.249 307.332 C 331.640 308.614,335.991 309.922,336.406 309.183 C 336.493 309.027,337.203 308.045,337.983 307.000 C 340.278 303.926,340.738 301.844,339.628 299.556 C 338.536 297.306,334.737 296.108,331.893 297.118 M53.570 297.583 C 50.304 298.627,49.104 301.758,50.752 304.937 C 52.033 307.409,54.080 309.681,55.159 309.828 C 55.677 309.898,56.328 310.015,56.606 310.088 C 57.049 310.205,57.245 310.058,58.206 308.889 C 58.808 308.157,59.684 307.094,60.153 306.529 C 64.348 301.468,59.981 295.533,53.570 297.583 M70.007 312.508 C 66.880 313.382,65.474 315.399,65.636 318.774 C 66.009 326.530,77.508 326.268,77.651 318.500 C 77.729 314.240,74.070 311.372,70.007 312.508 M39.476 316.583 C 37.131 318.580,37.065 318.968,38.750 320.831 C 39.383 321.530,40.081 322.352,40.301 322.656 L 40.703 323.210 41.801 321.778 C 43.598 319.434,43.800 319.128,43.800 318.746 C 43.800 318.136,43.286 317.354,42.162 316.253 L 41.093 315.206 39.476 316.583 M349.241 315.534 C 346.818 316.728,346.245 318.856,347.902 320.512 C 349.224 321.834,349.708 321.774,352.918 319.885 L 354.820 318.765 353.476 317.534 C 350.748 315.034,350.496 314.915,349.241 315.534 M85.400 327.794 C 82.441 328.315,80.817 330.101,80.643 333.025 C 80.425 336.669,82.648 339.114,87.044 340.067 L 88.389 340.358 89.652 338.929 C 92.340 335.889,92.800 335.072,92.800 333.342 C 92.800 329.597,89.445 327.082,85.400 327.794 M302.160 327.800 C 298.513 328.437,296.497 332.211,297.668 336.211 C 299.038 340.895,306.502 341.236,308.798 336.720 C 311.195 332.006,307.386 326.887,302.160 327.800 M332.846 331.476 C 330.261 334.169,330.273 334.690,332.984 337.523 L 334.469 339.074 335.258 338.187 C 338.515 334.528,338.661 333.459,336.200 331.290 C 334.275 329.594,334.674 329.572,332.846 331.476 M55.700 330.982 C 55.260 331.187,54.372 331.896,53.727 332.557 L 52.553 333.759 53.812 335.267 C 55.996 337.884,56.346 337.918,59.321 335.795 C 61.598 334.171,61.562 334.246,60.468 333.368 C 60.010 333.000,59.083 332.228,58.407 331.650 C 57.050 330.489,56.858 330.442,55.700 330.982 M285.209 343.915 C 281.489 345.529,281.257 349.861,284.704 353.333 C 286.144 354.782,287.062 355.142,288.441 354.793 C 289.300 354.576,289.973 354.147,292.971 351.900 L 294.572 350.700 294.585 349.300 L 294.598 347.900 292.408 346.200 C 288.966 343.527,287.313 343.003,285.209 343.915 M100.048 344.055 C 96.766 345.305,95.676 350.777,98.173 353.468 C 100.416 355.887,103.600 355.414,107.397 352.100 L 109.000 350.700 109.000 349.460 L 109.000 348.220 107.150 346.700 C 104.186 344.264,101.817 343.381,100.048 344.055 M317.025 346.104 C 314.988 349.123,314.912 349.947,316.527 351.516 C 318.240 353.181,319.579 353.123,321.125 351.316 C 322.667 349.515,322.549 348.672,320.401 346.166 C 319.522 345.140,318.802 344.233,318.801 344.150 C 318.798 343.672,318.286 344.235,317.025 346.104 M70.500 346.430 C 67.743 347.929,67.501 349.279,69.569 351.634 C 70.932 353.187,71.743 353.102,74.850 351.079 C 77.156 349.577,77.114 349.752,75.470 348.500 C 72.257 346.054,71.653 345.802,70.500 346.430 M269.972 360.350 C 267.928 363.042,267.737 363.432,267.840 364.684 C 268.048 367.189,271.507 370.051,273.578 369.430 C 275.194 368.946,277.400 366.483,277.400 365.163 C 277.400 363.805,274.428 359.065,273.396 358.778 C 271.737 358.316,271.397 358.472,269.972 360.350 M117.100 360.117 C 114.466 361.056,112.319 363.957,113.015 365.637 C 113.399 366.563,115.493 368.712,116.475 369.188 C 118.083 369.966,118.824 369.728,121.783 367.480 L 123.600 366.100 123.598 364.900 L 123.597 363.700 121.880 362.119 C 119.382 359.819,118.717 359.540,117.100 360.117 M86.483 362.257 C 84.053 363.674,83.459 365.350,84.899 366.730 C 86.457 368.222,86.888 368.174,89.595 366.200 C 91.759 364.622,91.754 364.909,89.650 363.322 C 87.862 361.974,87.296 361.784,86.483 362.257 M302.900 362.278 C 301.471 362.902,300.400 364.233,300.400 365.383 C 300.400 366.002,303.246 369.626,303.555 369.400 C 304.094 369.005,306.200 365.461,306.200 364.948 C 306.200 364.152,305.530 363.103,304.633 362.493 C 303.805 361.930,303.720 361.920,302.900 362.278 M131.453 376.507 C 128.774 379.266,128.666 379.619,129.905 381.601 C 131.495 384.145,133.284 384.696,135.154 383.217 C 137.483 381.377,137.493 380.584,135.230 377.135 C 133.287 374.173,133.658 374.235,131.453 376.507 M193.144 375.009 C 188.467 376.169,189.147 382.105,194.239 384.570 C 195.928 385.388,196.484 385.211,199.650 382.847 L 201.400 381.540 201.400 380.200 L 201.400 378.860 199.450 377.359 C 196.470 375.065,195.050 374.536,193.144 375.009 M163.239 375.918 C 160.435 377.315,159.016 379.871,159.987 381.774 C 161.088 383.933,163.393 385.276,165.158 384.787 C 165.865 384.591,170.886 381.470,171.794 380.662 C 171.846 380.616,171.576 380.336,171.195 380.039 C 170.814 379.743,169.737 378.837,168.801 378.026 C 165.599 375.252,165.018 375.032,163.239 375.918 M224.896 376.170 C 224.312 376.526,220.600 380.348,220.600 380.594 C 220.600 380.748,223.572 384.142,224.260 384.773 C 225.534 385.942,227.009 385.543,229.684 383.304 C 230.555 382.575,231.441 381.885,231.654 381.771 C 231.985 381.594,232.020 381.432,231.901 380.632 C 231.718 379.406,231.757 379.459,229.830 377.834 C 227.350 375.744,226.220 375.363,224.896 376.170 M255.589 376.765 C 252.971 378.428,252.542 380.274,254.214 382.684 C 254.678 383.353,255.415 384.421,255.852 385.059 C 256.812 386.457,256.602 386.521,258.704 384.200 C 261.505 381.108,261.605 380.687,260.075 378.455 C 258.642 376.365,257.120 375.792,255.589 376.765 M178.050 393.495 C 175.605 395.274,175.714 395.848,179.359 400.400 C 179.461 400.528,181.460 398.334,182.134 397.355 C 182.850 396.315,182.660 395.788,180.943 394.050 C 179.247 392.334,179.562 392.394,178.050 393.495 M209.316 393.023 C 209.021 393.255,208.416 393.937,207.972 394.538 L 207.166 395.629 208.351 396.965 C 210.374 399.242,210.850 399.254,213.500 397.096 C 215.032 395.849,215.443 395.400,215.054 395.400 C 214.955 395.400,214.044 394.770,213.028 394.000 C 210.978 392.446,210.283 392.263,209.316 393.023 " stroke="none" fill="#2c2c2c" fill-rule="evenodd"></path><path id="path2" d="M191.000 68.135 C 140.223 70.409,95.465 99.797,73.633 145.200 C 71.280 150.094,71.137 150.446,71.556 150.319 C 74.689 149.376,87.581 149.159,92.598 149.966 C 109.697 152.714,120.919 162.357,124.178 177.100 C 128.348 195.968,121.288 208.951,106.900 208.871 C 96.887 208.816,90.945 202.495,90.194 191.100 C 89.721 183.905,89.634 183.610,87.760 182.856 C 81.904 180.500,69.086 182.527,62.800 186.803 C 60.927 188.077,60.911 188.145,60.327 197.491 L 60.239 198.882 61.043 199.617 C 64.200 202.503,67.885 203.720,84.600 207.403 C 109.074 212.794,119.054 218.123,125.574 229.280 L 126.363 230.630 126.476 229.165 C 126.538 228.359,126.642 226.620,126.707 225.300 C 127.689 205.400,131.313 199.157,143.667 196.079 C 152.684 193.832,159.524 197.249,161.126 204.800 C 161.480 206.470,161.408 212.920,160.989 217.046 C 160.869 218.226,160.801 219.396,160.838 219.646 C 160.921 220.205,161.678 214.437,162.201 209.270 C 163.356 197.851,167.120 192.742,176.100 190.408 C 184.407 188.249,190.439 190.031,193.072 195.421 C 194.946 199.260,195.064 201.897,194.288 222.800 C 194.119 227.365,194.007 232.610,194.040 234.455 L 194.100 237.809 196.273 233.702 C 202.314 222.281,203.941 217.590,208.989 197.030 C 211.395 187.233,215.189 182.856,223.317 180.501 C 231.214 178.212,237.147 178.888,240.704 182.482 C 244.344 186.158,244.676 190.179,242.126 199.700 C 241.861 200.690,241.582 202.135,241.506 202.911 L 241.367 204.323 242.158 205.323 C 242.593 205.873,243.973 207.262,245.224 208.410 C 246.476 209.557,249.303 212.297,251.507 214.498 L 255.514 218.500 255.514 214.200 C 255.515 190.768,270.316 172.640,291.595 170.009 C 302.132 168.707,312.114 173.421,317.182 182.094 L 317.930 183.373 318.485 182.237 C 320.303 178.515,323.146 174.500,326.231 171.297 L 328.163 169.291 327.292 166.296 C 309.839 106.240,253.073 65.356,191.000 68.135 M64.908 240.050 C 66.266 246.362,73.243 264.127,74.276 263.903 C 74.509 263.852,75.555 263.672,76.600 263.503 C 89.730 261.378,96.814 255.608,93.957 249.368 C 92.410 245.990,88.022 244.322,71.184 240.711 C 63.994 239.170,64.736 239.248,64.908 240.050 M323.400 247.833 C 309.268 257.311,289.698 259.373,276.542 252.771 L 274.545 251.769 273.623 252.649 C 269.404 256.673,262.211 260.460,255.625 262.127 C 254.328 262.455,253.977 262.653,252.725 263.763 C 240.759 274.369,220.728 273.433,213.622 261.936 L 213.152 261.174 212.130 262.337 C 200.157 275.967,183.316 280.330,173.013 272.470 L 171.525 271.336 171.213 271.816 C 160.124 288.865,137.182 283.629,130.208 262.456 C 129.781 261.160,129.389 260.235,129.336 260.400 C 124.533 275.506,112.147 286.731,94.200 292.243 C 93.485 292.462,92.866 292.674,92.825 292.713 C 92.471 293.046,103.222 303.888,107.700 307.714 C 178.956 368.586,288.449 341.447,323.201 254.300 C 324.110 252.021,326.252 245.981,326.141 246.011 C 326.118 246.017,324.885 246.837,323.400 247.833 " stroke="none" fill="#ec1c14" fill-rule="evenodd"></path><path id="path3" d="M190.350 56.745 C 190.708 56.789,191.293 56.789,191.650 56.745 C 192.008 56.700,191.715 56.664,191.000 56.664 C 190.285 56.664,189.993 56.700,190.350 56.745 M201.150 56.745 C 201.508 56.789,202.093 56.789,202.450 56.745 C 202.808 56.700,202.515 56.664,201.800 56.664 C 201.085 56.664,200.793 56.700,201.150 56.745 M186.653 56.944 C 186.957 56.989,187.407 56.988,187.653 56.941 C 187.899 56.893,187.650 56.856,187.100 56.857 C 186.550 56.859,186.349 56.898,186.653 56.944 M205.550 56.941 C 205.798 56.989,206.203 56.989,206.450 56.941 C 206.697 56.893,206.495 56.854,206.000 56.854 C 205.505 56.854,205.303 56.893,205.550 56.941 M183.850 57.138 C 184.043 57.188,184.358 57.188,184.550 57.138 C 184.743 57.088,184.585 57.046,184.200 57.046 C 183.815 57.046,183.658 57.088,183.850 57.138 M295.600 94.863 C 295.600 94.897,295.893 95.190,296.250 95.513 L 296.900 96.100 296.313 95.450 C 295.765 94.844,295.600 94.708,295.600 94.863 M95.891 96.050 L 95.100 96.900 95.950 96.109 C 96.740 95.374,96.892 95.200,96.741 95.200 C 96.708 95.200,96.325 95.583,95.891 96.050 M300.700 99.800 C 302.127 101.230,303.339 102.400,303.394 102.400 C 303.449 102.400,302.327 101.230,300.900 99.800 C 299.473 98.370,298.261 97.200,298.206 97.200 C 298.151 97.200,299.273 98.370,300.700 99.800 M91.800 99.900 C 91.314 100.395,90.962 100.800,91.017 100.800 C 91.072 100.800,91.514 100.395,92.000 99.900 C 92.486 99.405,92.838 99.000,92.783 99.000 C 92.728 99.000,92.286 99.405,91.800 99.900 M87.891 104.050 L 87.100 104.900 87.950 104.109 C 88.740 103.374,88.892 103.200,88.741 103.200 C 88.708 103.200,88.325 103.583,87.891 104.050 M305.200 104.500 C 305.573 104.885,305.923 105.200,305.978 105.200 C 306.033 105.200,305.773 104.885,305.400 104.500 C 305.027 104.115,304.677 103.800,304.622 103.800 C 304.567 103.800,304.827 104.115,305.200 104.500 M80.050 157.343 C 80.353 157.389,80.848 157.389,81.150 157.343 C 81.453 157.297,81.205 157.260,80.600 157.260 C 79.995 157.260,79.748 157.297,80.050 157.343 M85.650 157.343 C 85.953 157.389,86.448 157.389,86.750 157.343 C 87.053 157.297,86.805 157.260,86.200 157.260 C 85.595 157.260,85.348 157.297,85.650 157.343 M77.250 157.538 C 77.442 157.588,77.758 157.588,77.950 157.538 C 78.142 157.488,77.985 157.446,77.600 157.446 C 77.215 157.446,77.058 157.488,77.250 157.538 M350.650 159.738 C 350.843 159.788,351.158 159.788,351.350 159.738 C 351.543 159.688,351.385 159.646,351.000 159.646 C 350.615 159.646,350.457 159.688,350.650 159.738 M36.189 166.150 L 35.500 166.900 36.250 166.211 C 36.948 165.569,37.092 165.400,36.939 165.400 C 36.906 165.400,36.568 165.738,36.189 166.150 M352.357 167.548 C 352.938 167.588,353.838 167.588,354.357 167.547 C 354.876 167.506,354.400 167.473,353.300 167.473 C 352.200 167.474,351.776 167.507,352.357 167.548 M365.800 172.500 C 366.397 173.105,366.931 173.600,366.986 173.600 C 367.041 173.600,366.597 173.105,366.000 172.500 C 365.403 171.895,364.869 171.400,364.814 171.400 C 364.759 171.400,365.203 171.895,365.800 172.500 M40.287 173.050 L 39.700 173.700 40.350 173.113 C 40.956 172.565,41.092 172.400,40.937 172.400 C 40.903 172.400,40.610 172.692,40.287 173.050 M80.158 173.948 C 80.850 173.987,81.930 173.987,82.558 173.948 C 83.186 173.908,82.620 173.876,81.300 173.876 C 79.980 173.877,79.466 173.909,80.158 173.948 M294.350 177.745 C 294.707 177.789,295.293 177.789,295.650 177.745 C 296.007 177.700,295.715 177.664,295.000 177.664 C 294.285 177.664,293.993 177.700,294.350 177.745 M307.700 182.800 C 308.242 183.350,308.730 183.800,308.785 183.800 C 308.840 183.800,308.442 183.350,307.900 182.800 C 307.358 182.250,306.870 181.800,306.815 181.800 C 306.760 181.800,307.158 182.250,307.700 182.800 M349.952 182.741 C 350.201 182.789,350.561 182.787,350.752 182.737 C 350.944 182.687,350.740 182.648,350.300 182.650 C 349.860 182.653,349.704 182.694,349.952 182.741 M274.000 186.700 C 273.181 187.525,272.555 188.200,272.610 188.200 C 272.665 188.200,273.381 187.525,274.200 186.700 C 275.019 185.875,275.645 185.200,275.590 185.200 C 275.535 185.200,274.819 185.875,274.000 186.700 M231.146 187.144 C 231.501 187.189,232.131 187.189,232.546 187.146 C 232.960 187.103,232.670 187.067,231.900 187.066 C 231.130 187.065,230.790 187.100,231.146 187.144 M97.846 187.800 C 97.846 188.185,97.888 188.343,97.938 188.150 C 97.988 187.958,97.988 187.643,97.938 187.450 C 97.888 187.258,97.846 187.415,97.846 187.800 M117.450 187.900 C 117.453 188.340,117.494 188.496,117.541 188.248 C 117.589 187.999,117.587 187.639,117.537 187.448 C 117.487 187.256,117.448 187.460,117.450 187.900 M235.857 190.300 C 235.859 190.850,235.898 191.051,235.944 190.747 C 235.989 190.443,235.988 189.993,235.941 189.747 C 235.893 189.501,235.856 189.750,235.857 190.300 M219.989 191.150 L 219.300 191.900 220.050 191.211 C 220.748 190.569,220.892 190.400,220.739 190.400 C 220.706 190.400,220.368 190.738,219.989 191.150 M98.050 191.300 C 98.053 191.740,98.094 191.896,98.141 191.648 C 98.189 191.399,98.187 191.039,98.137 190.848 C 98.087 190.656,98.048 190.860,98.050 191.300 M50.654 193.600 C 50.654 194.095,50.693 194.298,50.741 194.050 C 50.789 193.803,50.789 193.398,50.741 193.150 C 50.693 192.903,50.654 193.105,50.654 193.600 M30.462 195.100 C 30.463 195.760,30.500 196.006,30.545 195.646 C 30.589 195.287,30.589 194.747,30.543 194.446 C 30.497 194.146,30.461 194.440,30.462 195.100 M285.887 195.650 L 285.300 196.300 285.950 195.713 C 286.556 195.165,286.692 195.000,286.537 195.000 C 286.503 195.000,286.210 195.293,285.887 195.650 M30.464 198.000 C 30.464 198.715,30.500 199.008,30.545 198.650 C 30.589 198.293,30.589 197.708,30.545 197.350 C 30.500 196.993,30.464 197.285,30.464 198.000 M339.246 197.800 C 339.246 198.185,339.288 198.343,339.338 198.150 C 339.388 197.958,339.388 197.643,339.338 197.450 C 339.288 197.258,339.246 197.415,339.246 197.800 M313.457 198.300 C 313.459 198.850,313.498 199.051,313.544 198.747 C 313.589 198.443,313.588 197.993,313.541 197.747 C 313.493 197.501,313.456 197.750,313.457 198.300 M113.989 198.350 L 113.300 199.100 114.050 198.411 C 114.748 197.769,114.892 197.600,114.739 197.600 C 114.706 197.600,114.368 197.938,113.989 198.350 M186.650 202.100 C 186.653 202.540,186.694 202.696,186.741 202.448 C 186.789 202.199,186.787 201.839,186.737 201.648 C 186.687 201.456,186.648 201.660,186.650 202.100 M321.475 203.900 C 321.475 205.110,321.508 205.579,321.548 204.943 C 321.588 204.306,321.587 203.316,321.547 202.743 C 321.507 202.169,321.474 202.690,321.475 203.900 M339.246 203.000 C 339.246 203.385,339.288 203.543,339.338 203.350 C 339.388 203.158,339.388 202.843,339.338 202.650 C 339.288 202.458,339.246 202.615,339.246 203.000 M54.900 204.800 C 55.330 205.240,55.726 205.600,55.781 205.600 C 55.836 205.600,55.530 205.240,55.100 204.800 C 54.670 204.360,54.274 204.000,54.219 204.000 C 54.164 204.000,54.470 204.360,54.900 204.800 M363.695 206.050 L 362.300 207.500 363.750 206.105 C 365.097 204.810,365.291 204.600,365.145 204.600 C 365.114 204.600,364.462 205.253,363.695 206.050 M153.471 208.500 C 153.470 209.490,153.504 209.920,153.546 209.456 C 153.588 208.992,153.589 208.182,153.547 207.656 C 153.506 207.130,153.472 207.510,153.471 208.500 M281.054 208.800 C 281.054 209.295,281.093 209.498,281.141 209.250 C 281.189 209.003,281.189 208.597,281.141 208.350 C 281.093 208.103,281.054 208.305,281.054 208.800 M293.000 210.100 C 292.514 210.595,292.162 211.000,292.217 211.000 C 292.272 211.000,292.714 210.595,293.200 210.100 C 293.686 209.605,294.038 209.200,293.983 209.200 C 293.928 209.200,293.486 209.605,293.000 210.100 M236.000 210.463 C 236.000 210.497,236.293 210.790,236.650 211.113 L 237.300 211.700 236.713 211.050 C 236.165 210.444,236.000 210.308,236.000 210.463 M281.054 212.600 C 281.054 213.095,281.093 213.298,281.141 213.050 C 281.189 212.803,281.189 212.398,281.141 212.150 C 281.093 211.903,281.054 212.105,281.054 212.600 M186.669 213.500 C 186.669 214.380,186.704 214.715,186.747 214.245 C 186.789 213.774,186.788 213.054,186.745 212.645 C 186.702 212.235,186.668 212.620,186.669 213.500 M153.257 213.500 C 153.259 214.050,153.298 214.251,153.344 213.947 C 153.389 213.643,153.388 213.193,153.341 212.947 C 153.293 212.701,153.256 212.950,153.257 213.500 M263.260 214.200 C 263.260 214.805,263.297 215.053,263.343 214.750 C 263.389 214.447,263.389 213.953,263.343 213.650 C 263.297 213.347,263.260 213.595,263.260 214.200 M239.800 214.300 C 240.173 214.685,240.523 215.000,240.578 215.000 C 240.633 215.000,240.373 214.685,240.000 214.300 C 239.627 213.915,239.277 213.600,239.222 213.600 C 239.167 213.600,239.427 213.915,239.800 214.300 M241.400 215.663 C 241.400 215.697,241.693 215.990,242.050 216.313 L 242.700 216.900 242.113 216.250 C 241.565 215.644,241.400 215.508,241.400 215.663 M263.446 218.000 C 263.446 218.385,263.488 218.543,263.538 218.350 C 263.588 218.157,263.588 217.843,263.538 217.650 C 263.488 217.457,263.446 217.615,263.446 218.000 M186.466 219.100 C 186.467 219.870,186.503 220.160,186.546 219.746 C 186.589 219.331,186.589 218.701,186.544 218.346 C 186.500 217.990,186.465 218.330,186.466 219.100 M152.850 218.900 C 152.853 219.340,152.894 219.496,152.941 219.248 C 152.989 218.999,152.987 218.639,152.937 218.448 C 152.887 218.256,152.848 218.460,152.850 218.900 M246.000 220.100 C 246.930 221.035,247.736 221.800,247.791 221.800 C 247.846 221.800,247.130 221.035,246.200 220.100 C 245.270 219.165,244.464 218.400,244.409 218.400 C 244.354 218.400,245.070 219.165,246.000 220.100 M345.200 219.700 C 345.573 220.085,345.923 220.400,345.978 220.400 C 346.033 220.400,345.773 220.085,345.400 219.700 C 345.027 219.315,344.677 219.000,344.622 219.000 C 344.567 219.000,344.827 219.315,345.200 219.700 M319.796 221.750 L 318.100 223.500 319.850 221.804 C 321.475 220.230,321.691 220.000,321.546 220.000 C 321.516 220.000,320.728 220.788,319.796 221.750 M152.662 222.500 C 152.663 223.160,152.700 223.406,152.745 223.046 C 152.789 222.687,152.789 222.147,152.743 221.846 C 152.697 221.546,152.661 221.840,152.662 222.500 M186.266 224.300 C 186.267 225.070,186.303 225.360,186.346 224.946 C 186.389 224.531,186.389 223.901,186.344 223.546 C 186.300 223.190,186.265 223.530,186.266 224.300 M353.653 223.344 C 353.957 223.389,354.407 223.388,354.653 223.341 C 354.899 223.293,354.650 223.256,354.100 223.257 C 353.550 223.259,353.349 223.298,353.653 223.344 M134.646 224.000 C 134.646 224.385,134.688 224.543,134.738 224.350 C 134.788 224.157,134.788 223.843,134.738 223.650 C 134.688 223.457,134.646 223.615,134.646 224.000 M134.462 227.500 C 134.463 228.160,134.500 228.406,134.545 228.046 C 134.589 227.687,134.589 227.147,134.543 226.846 C 134.497 226.546,134.461 226.840,134.462 227.500 M115.100 228.600 C 115.642 229.150,116.130 229.600,116.185 229.600 C 116.240 229.600,115.842 229.150,115.300 228.600 C 114.758 228.050,114.270 227.600,114.215 227.600 C 114.160 227.600,114.558 228.050,115.100 228.600 M376.687 228.450 L 376.100 229.100 376.750 228.513 C 377.356 227.965,377.492 227.800,377.337 227.800 C 377.303 227.800,377.010 228.093,376.687 228.450 M229.400 229.900 C 229.997 230.505,230.531 231.000,230.586 231.000 C 230.641 231.000,230.197 230.505,229.600 229.900 C 229.003 229.295,228.469 228.800,228.414 228.800 C 228.359 228.800,228.803 229.295,229.400 229.900 M186.073 230.900 C 186.074 232.000,186.107 232.424,186.148 231.843 C 186.188 231.262,186.188 230.362,186.147 229.843 C 186.106 229.324,186.073 229.800,186.073 230.900 M374.989 230.150 L 374.300 230.900 375.050 230.211 C 375.463 229.832,375.800 229.494,375.800 229.461 C 375.800 229.308,375.631 229.452,374.989 230.150 M330.680 230.850 C 330.601 230.988,330.612 231.031,330.705 230.946 C 330.799 230.861,331.240 231.131,331.687 231.546 L 332.500 232.300 331.709 231.450 C 330.811 230.484,330.870 230.519,330.680 230.850 M327.895 233.850 L 326.500 235.300 327.950 233.905 C 329.297 232.610,329.491 232.400,329.345 232.400 C 329.314 232.400,328.662 233.053,327.895 233.850 M296.453 233.344 C 296.757 233.389,297.207 233.388,297.453 233.341 C 297.699 233.293,297.450 233.256,296.900 233.257 C 296.350 233.259,296.149 233.298,296.453 233.344 M259.794 235.550 L 258.500 236.900 259.850 235.606 C 261.104 234.404,261.291 234.200,261.144 234.200 C 261.114 234.200,260.506 234.808,259.794 235.550 M134.460 238.000 C 134.460 238.605,134.497 238.853,134.543 238.550 C 134.589 238.248,134.589 237.753,134.543 237.450 C 134.497 237.148,134.460 237.395,134.460 238.000 M39.250 238.338 C 39.443 238.388,39.758 238.388,39.950 238.338 C 40.143 238.288,39.985 238.246,39.600 238.246 C 39.215 238.246,39.058 238.288,39.250 238.338 M43.050 238.338 C 43.243 238.388,43.558 238.388,43.750 238.338 C 43.943 238.288,43.785 238.246,43.400 238.246 C 43.015 238.246,42.858 238.288,43.050 238.338 M152.664 239.400 C 152.664 240.115,152.700 240.407,152.745 240.050 C 152.789 239.693,152.789 239.107,152.745 238.750 C 152.700 238.393,152.664 238.685,152.664 239.400 M353.450 238.738 C 353.643 238.788,353.957 238.788,354.150 238.738 C 354.343 238.688,354.185 238.646,353.800 238.646 C 353.415 238.646,353.257 238.688,353.450 238.738 M134.646 241.200 C 134.646 241.585,134.688 241.743,134.738 241.550 C 134.788 241.357,134.788 241.043,134.738 240.850 C 134.688 240.657,134.646 240.815,134.646 241.200 M186.062 242.100 C 186.063 242.760,186.100 243.006,186.145 242.646 C 186.189 242.287,186.189 241.747,186.143 241.446 C 186.097 241.146,186.061 241.440,186.062 242.100 M52.992 242.650 C 53.998 243.722,54.000 243.723,54.000 243.267 C 54.000 243.083,53.938 242.995,53.863 243.071 C 53.787 243.146,53.360 242.869,52.913 242.454 C 52.128 241.727,52.131 241.733,52.992 242.650 M235.752 242.141 C 236.001 242.189,236.361 242.187,236.552 242.137 C 236.744 242.087,236.540 242.048,236.100 242.050 C 235.660 242.053,235.504 242.094,235.752 242.141 M231.653 242.344 C 231.957 242.389,232.407 242.388,232.653 242.341 C 232.899 242.293,232.650 242.256,232.100 242.257 C 231.550 242.259,231.349 242.298,231.653 242.344 M152.846 243.000 C 152.846 243.385,152.888 243.543,152.938 243.350 C 152.988 243.157,152.988 242.843,152.938 242.650 C 152.888 242.457,152.846 242.615,152.846 243.000 M28.091 243.450 L 27.300 244.300 28.150 243.509 C 28.940 242.774,29.092 242.600,28.941 242.600 C 28.908 242.600,28.525 242.982,28.091 243.450 M40.755 246.147 C 41.226 246.189,41.946 246.188,42.355 246.145 C 42.765 246.102,42.380 246.068,41.500 246.069 C 40.620 246.069,40.285 246.104,40.755 246.147 M349.350 246.746 C 349.818 246.789,350.582 246.789,351.050 246.746 C 351.518 246.704,351.135 246.670,350.200 246.670 C 349.265 246.670,348.882 246.704,349.350 246.746 M122.657 247.900 C 122.659 248.450,122.698 248.651,122.744 248.347 C 122.789 248.043,122.788 247.593,122.741 247.347 C 122.693 247.101,122.656 247.350,122.657 247.900 M292.650 248.748 C 293.393 248.787,294.608 248.787,295.350 248.748 C 296.093 248.710,295.485 248.678,294.000 248.678 C 292.515 248.678,291.907 248.710,292.650 248.748 M190.550 250.741 C 190.798 250.789,191.203 250.789,191.450 250.741 C 191.697 250.693,191.495 250.654,191.000 250.654 C 190.505 250.654,190.303 250.693,190.550 250.741 M122.650 251.900 C 122.653 252.340,122.694 252.496,122.741 252.248 C 122.789 251.999,122.787 251.639,122.737 251.448 C 122.687 251.256,122.648 251.460,122.650 251.900 M102.454 252.200 C 102.454 252.695,102.493 252.898,102.541 252.650 C 102.589 252.403,102.589 251.998,102.541 251.750 C 102.493 251.503,102.454 251.705,102.454 252.200 M218.650 252.500 C 218.653 252.940,218.694 253.096,218.741 252.848 C 218.789 252.599,218.787 252.239,218.737 252.048 C 218.687 251.856,218.648 252.060,218.650 252.500 M57.817 256.510 C 57.834 257.291,57.836 257.293,58.012 256.705 C 58.122 256.337,58.115 256.035,57.995 255.915 C 57.868 255.788,57.806 255.997,57.817 256.510 M248.393 256.950 L 247.300 258.100 248.450 257.007 C 249.082 256.406,249.600 255.888,249.600 255.857 C 249.600 255.708,249.409 255.882,248.393 256.950 M50.060 257.000 C 50.060 257.605,50.097 257.853,50.143 257.550 C 50.189 257.248,50.189 256.752,50.143 256.450 C 50.097 256.147,50.060 256.395,50.060 257.000 M30.462 258.700 C 30.463 259.360,30.500 259.606,30.545 259.246 C 30.589 258.887,30.589 258.347,30.543 258.046 C 30.497 257.746,30.461 258.040,30.462 258.700 M205.087 258.250 L 204.500 258.900 205.150 258.313 C 205.756 257.765,205.892 257.600,205.737 257.600 C 205.703 257.600,205.410 257.893,205.087 258.250 M58.050 259.500 C 58.053 259.940,58.094 260.096,58.141 259.848 C 58.189 259.599,58.187 259.239,58.137 259.048 C 58.087 258.856,58.048 259.060,58.050 259.500 M50.246 260.600 C 50.246 260.985,50.288 261.143,50.338 260.950 C 50.388 260.757,50.388 260.443,50.338 260.250 C 50.288 260.058,50.246 260.215,50.246 260.600 M97.892 262.650 L 96.900 263.700 97.950 262.708 C 98.926 261.785,99.092 261.600,98.942 261.600 C 98.911 261.600,98.438 262.072,97.892 262.650 M231.256 263.347 C 231.782 263.389,232.592 263.388,233.056 263.346 C 233.520 263.304,233.090 263.270,232.100 263.271 C 231.110 263.272,230.730 263.306,231.256 263.347 M53.300 268.200 C 53.730 268.640,54.126 269.000,54.181 269.000 C 54.236 269.000,53.930 268.640,53.500 268.200 C 53.070 267.760,52.674 267.400,52.619 267.400 C 52.564 267.400,52.870 267.760,53.300 268.200 M143.500 269.800 C 144.153 270.460,144.732 271.000,144.787 271.000 C 144.842 271.000,144.353 270.460,143.700 269.800 C 143.047 269.140,142.468 268.600,142.413 268.600 C 142.358 268.600,142.847 269.140,143.500 269.800 M113.194 272.350 L 111.900 273.700 113.250 272.406 C 114.504 271.204,114.691 271.000,114.544 271.000 C 114.514 271.000,113.906 271.608,113.194 272.350 M71.650 272.138 C 71.843 272.188,72.158 272.188,72.350 272.138 C 72.543 272.088,72.385 272.046,72.000 272.046 C 71.615 272.046,71.458 272.088,71.650 272.138 M66.050 272.348 C 66.793 272.387,68.008 272.387,68.750 272.348 C 69.492 272.310,68.885 272.278,67.400 272.278 C 65.915 272.278,65.308 272.310,66.050 272.348 M152.550 274.141 C 152.797 274.189,153.203 274.189,153.450 274.141 C 153.697 274.093,153.495 274.054,153.000 274.054 C 152.505 274.054,152.303 274.093,152.550 274.141 M71.650 288.738 C 71.843 288.788,72.158 288.788,72.350 288.738 C 72.543 288.688,72.385 288.646,72.000 288.646 C 71.615 288.646,71.458 288.688,71.650 288.738 M61.453 288.944 C 61.757 288.989,62.207 288.988,62.453 288.941 C 62.699 288.893,62.450 288.856,61.900 288.857 C 61.350 288.859,61.149 288.898,61.453 288.944 M68.653 288.944 C 68.957 288.989,69.407 288.988,69.653 288.941 C 69.899 288.893,69.650 288.856,69.100 288.857 C 68.550 288.859,68.349 288.898,68.653 288.944 M69.853 296.744 C 70.157 296.789,70.607 296.788,70.853 296.741 C 71.099 296.693,70.850 296.656,70.300 296.657 C 69.750 296.659,69.549 296.698,69.853 296.744 M65.352 296.941 C 65.601 296.989,65.961 296.987,66.152 296.937 C 66.344 296.887,66.140 296.848,65.700 296.850 C 65.260 296.853,65.104 296.894,65.352 296.941 M305.189 304.150 L 304.500 304.900 305.250 304.211 C 305.663 303.832,306.000 303.494,306.000 303.461 C 306.000 303.308,305.831 303.452,305.189 304.150 M87.900 304.600 C 88.330 305.040,88.726 305.400,88.781 305.400 C 88.836 305.400,88.530 305.040,88.100 304.600 C 87.670 304.160,87.274 303.800,87.219 303.800 C 87.164 303.800,87.470 304.160,87.900 304.600 M300.797 308.750 L 298.300 311.300 300.850 308.803 C 303.219 306.484,303.491 306.200,303.347 306.200 C 303.318 306.200,302.170 307.348,300.797 308.750 M91.700 308.600 C 92.130 309.040,92.526 309.400,92.581 309.400 C 92.636 309.400,92.330 309.040,91.900 308.600 C 91.470 308.160,91.074 307.800,91.019 307.800 C 90.964 307.800,91.270 308.160,91.700 308.600 M95.900 312.600 C 96.330 313.040,96.726 313.400,96.781 313.400 C 96.836 313.400,96.530 313.040,96.100 312.600 C 95.670 312.160,95.274 311.800,95.219 311.800 C 95.164 311.800,95.470 312.160,95.900 312.600 M296.189 313.150 L 295.500 313.900 296.250 313.211 C 296.663 312.832,297.000 312.494,297.000 312.461 C 297.000 312.308,296.831 312.452,296.189 313.150 M181.650 351.338 C 181.843 351.388,182.158 351.388,182.350 351.338 C 182.543 351.288,182.385 351.246,182.000 351.246 C 181.615 351.246,181.458 351.288,181.650 351.338 M183.850 351.538 C 184.043 351.588,184.358 351.588,184.550 351.538 C 184.743 351.488,184.585 351.446,184.200 351.446 C 183.815 351.446,183.658 351.488,183.850 351.538 M208.250 351.538 C 208.443 351.588,208.757 351.588,208.950 351.538 C 209.143 351.488,208.985 351.446,208.600 351.446 C 208.215 351.446,208.058 351.488,208.250 351.538 M186.653 351.744 C 186.957 351.789,187.407 351.788,187.653 351.741 C 187.899 351.693,187.650 351.656,187.100 351.657 C 186.550 351.659,186.349 351.698,186.653 351.744 M205.453 351.744 C 205.757 351.789,206.207 351.788,206.453 351.741 C 206.699 351.693,206.450 351.656,205.900 351.657 C 205.350 351.659,205.149 351.698,205.453 351.744 M190.346 351.944 C 190.701 351.989,191.331 351.989,191.746 351.946 C 192.160 351.903,191.870 351.867,191.100 351.866 C 190.330 351.865,189.990 351.900,190.346 351.944 M200.946 351.944 C 201.301 351.989,201.931 351.989,202.346 351.946 C 202.760 351.903,202.470 351.867,201.700 351.866 C 200.930 351.865,200.590 351.900,200.946 351.944 " stroke="none" fill="#b6948d" fill-rule="evenodd"></path><path id="path4" d="M190.350 68.145 C 190.708 68.189,191.293 68.189,191.650 68.145 C 192.008 68.100,191.715 68.064,191.000 68.064 C 190.285 68.064,189.993 68.100,190.350 68.145 M201.150 68.145 C 201.508 68.189,202.093 68.189,202.450 68.145 C 202.808 68.100,202.515 68.064,201.800 68.064 C 201.085 68.064,200.793 68.100,201.150 68.145 M186.750 68.341 C 186.998 68.389,187.403 68.389,187.650 68.341 C 187.898 68.293,187.695 68.254,187.200 68.254 C 186.705 68.254,186.503 68.293,186.750 68.341 M205.150 68.341 C 205.398 68.389,205.803 68.389,206.050 68.341 C 206.298 68.293,206.095 68.254,205.600 68.254 C 205.105 68.254,204.903 68.293,205.150 68.341 M104.887 103.250 L 104.300 103.900 104.950 103.313 C 105.308 102.990,105.600 102.697,105.600 102.663 C 105.600 102.508,105.435 102.644,104.887 103.250 M289.792 105.050 C 290.620 105.933,290.800 106.092,290.800 105.942 C 290.800 105.910,290.373 105.482,289.850 104.992 L 288.900 104.100 289.792 105.050 M99.998 107.950 L 96.900 111.100 100.050 108.002 C 102.976 105.125,103.290 104.800,103.148 104.800 C 103.119 104.800,101.701 106.218,99.998 107.950 M295.300 110.600 C 295.842 111.150,296.330 111.600,296.385 111.600 C 296.440 111.600,296.042 111.150,295.500 110.600 C 294.958 110.050,294.470 109.600,294.415 109.600 C 294.360 109.600,294.758 110.050,295.300 110.600 M78.552 149.541 C 78.801 149.589,79.161 149.587,79.352 149.537 C 79.544 149.487,79.340 149.448,78.900 149.450 C 78.460 149.453,78.304 149.494,78.552 149.541 M87.352 149.541 C 87.601 149.589,87.961 149.587,88.152 149.537 C 88.344 149.487,88.140 149.448,87.700 149.450 C 87.260 149.453,87.104 149.494,87.352 149.541 M114.000 159.455 C 114.000 159.485,114.697 160.183,115.550 161.005 L 117.100 162.500 115.605 160.950 C 114.216 159.510,114.000 159.309,114.000 159.455 M293.050 169.943 C 293.353 169.989,293.848 169.989,294.150 169.943 C 294.453 169.897,294.205 169.860,293.600 169.860 C 292.995 169.860,292.748 169.897,293.050 169.943 M296.050 169.943 C 296.353 169.989,296.848 169.989,297.150 169.943 C 297.453 169.897,297.205 169.860,296.600 169.860 C 295.995 169.860,295.748 169.897,296.050 169.943 M325.692 171.850 L 324.700 172.900 325.750 171.908 C 326.328 171.362,326.800 170.889,326.800 170.858 C 326.800 170.708,326.615 170.874,325.692 171.850 M312.800 176.663 C 312.800 176.697,313.093 176.990,313.450 177.313 L 314.100 177.900 313.513 177.250 C 312.965 176.644,312.800 176.508,312.800 176.663 M268.287 181.250 L 267.700 181.900 268.350 181.313 C 268.956 180.765,269.092 180.600,268.937 180.600 C 268.903 180.600,268.610 180.893,268.287 181.250 M80.850 181.738 C 81.043 181.788,81.358 181.788,81.550 181.738 C 81.743 181.688,81.585 181.646,81.200 181.646 C 80.815 181.646,80.658 181.688,80.850 181.738 M125.278 187.700 C 125.278 189.130,125.310 189.689,125.348 188.942 C 125.387 188.195,125.387 187.025,125.348 186.342 C 125.309 185.659,125.277 186.270,125.278 187.700 M89.846 186.600 C 89.846 186.985,89.888 187.143,89.938 186.950 C 89.988 186.758,89.988 186.442,89.938 186.250 C 89.888 186.058,89.846 186.215,89.846 186.600 M90.046 189.000 C 90.046 189.385,90.088 189.543,90.138 189.350 C 90.188 189.158,90.188 188.843,90.138 188.650 C 90.088 188.458,90.046 188.615,90.046 189.000 M182.154 189.545 C 182.513 189.589,183.053 189.589,183.354 189.543 C 183.654 189.497,183.360 189.461,182.700 189.462 C 182.040 189.463,181.794 189.500,182.154 189.545 M60.646 191.600 C 60.646 191.985,60.688 192.143,60.738 191.950 C 60.788 191.758,60.788 191.442,60.738 191.250 C 60.688 191.058,60.646 191.215,60.646 191.600 M243.650 191.700 C 243.653 192.140,243.694 192.296,243.741 192.048 C 243.789 191.799,243.787 191.439,243.737 191.248 C 243.687 191.056,243.648 191.260,243.650 191.700 M191.000 192.700 C 191.373 193.085,191.723 193.400,191.778 193.400 C 191.833 193.400,191.573 193.085,191.200 192.700 C 190.827 192.315,190.477 192.000,190.422 192.000 C 190.367 192.000,190.627 192.315,191.000 192.700 M60.446 194.000 C 60.446 194.385,60.488 194.543,60.538 194.350 C 60.588 194.158,60.588 193.843,60.538 193.650 C 60.488 193.458,60.446 193.615,60.446 194.000 M167.400 195.100 C 166.914 195.595,166.562 196.000,166.617 196.000 C 166.672 196.000,167.114 195.595,167.600 195.100 C 168.086 194.605,168.438 194.200,168.383 194.200 C 168.328 194.200,167.886 194.605,167.400 195.100 M60.260 197.200 C 60.260 197.805,60.297 198.053,60.343 197.750 C 60.389 197.447,60.389 196.953,60.343 196.650 C 60.297 196.347,60.260 196.595,60.260 197.200 M133.189 201.350 L 132.500 202.100 133.250 201.411 C 133.948 200.769,134.092 200.600,133.939 200.600 C 133.906 200.600,133.568 200.938,133.189 201.350 M94.792 203.850 C 95.620 204.733,95.800 204.892,95.800 204.742 C 95.800 204.710,95.373 204.282,94.850 203.792 L 93.900 202.900 94.792 203.850 M194.683 207.100 C 194.684 209.190,194.713 210.018,194.749 208.940 C 194.785 207.861,194.785 206.151,194.749 205.140 C 194.713 204.128,194.683 205.010,194.683 207.100 M243.400 206.900 C 243.773 207.285,244.123 207.600,244.178 207.600 C 244.233 207.600,243.973 207.285,243.600 206.900 C 243.227 206.515,242.877 206.200,242.822 206.200 C 242.767 206.200,243.027 206.515,243.400 206.900 M106.256 208.947 C 106.782 208.989,107.592 208.988,108.056 208.946 C 108.520 208.904,108.090 208.870,107.100 208.871 C 106.110 208.872,105.730 208.906,106.256 208.947 M161.264 211.000 C 161.264 211.715,161.300 212.007,161.345 211.650 C 161.389 211.293,161.389 210.707,161.345 210.350 C 161.300 209.993,161.264 210.285,161.264 211.000 M248.392 211.450 C 249.220 212.333,249.400 212.492,249.400 212.342 C 249.400 212.310,248.972 211.882,248.450 211.392 L 247.500 210.500 248.392 211.450 M255.479 214.200 C 255.479 215.795,255.511 216.447,255.549 215.650 C 255.586 214.853,255.586 213.548,255.549 212.750 C 255.511 211.953,255.479 212.605,255.479 214.200 M161.057 214.900 C 161.059 215.450,161.098 215.651,161.144 215.347 C 161.189 215.043,161.188 214.593,161.141 214.347 C 161.093 214.101,161.056 214.350,161.057 214.900 M194.466 215.900 C 194.467 216.670,194.503 216.960,194.546 216.546 C 194.589 216.131,194.589 215.501,194.544 215.146 C 194.500 214.790,194.465 215.130,194.466 215.900 M254.500 217.600 C 254.930 218.040,255.326 218.400,255.381 218.400 C 255.436 218.400,255.130 218.040,254.700 217.600 C 254.270 217.160,253.874 216.800,253.819 216.800 C 253.764 216.800,254.070 217.160,254.500 217.600 M160.630 220.800 L 160.647 222.100 160.812 221.112 C 160.908 220.543,160.900 219.992,160.795 219.812 C 160.672 219.603,160.618 219.928,160.630 220.800 M194.266 221.100 C 194.267 221.870,194.303 222.160,194.346 221.746 C 194.389 221.331,194.389 220.701,194.344 220.346 C 194.300 219.990,194.265 220.330,194.266 221.100 M126.846 222.800 C 126.846 223.185,126.888 223.343,126.938 223.150 C 126.988 222.957,126.988 222.643,126.938 222.450 C 126.888 222.257,126.846 222.415,126.846 222.800 M126.654 225.800 C 126.654 226.295,126.693 226.498,126.741 226.250 C 126.789 226.003,126.789 225.597,126.741 225.350 C 126.693 225.103,126.654 225.305,126.654 225.800 M194.067 226.600 C 194.067 227.425,194.103 227.763,194.146 227.350 C 194.189 226.938,194.189 226.263,194.146 225.850 C 194.103 225.438,194.067 225.775,194.067 226.600 M126.364 230.015 C 126.322 230.463,126.357 230.873,126.443 230.927 C 126.529 230.980,126.600 230.613,126.600 230.112 C 126.600 228.980,126.468 228.926,126.364 230.015 M193.881 235.000 C 193.881 236.815,193.912 237.558,193.949 236.650 C 193.986 235.743,193.986 234.257,193.949 233.350 C 193.912 232.443,193.881 233.185,193.881 235.000 M273.087 253.050 L 272.500 253.700 273.150 253.113 C 273.756 252.565,273.892 252.400,273.737 252.400 C 273.703 252.400,273.410 252.693,273.087 253.050 M290.550 256.541 C 290.798 256.589,291.203 256.589,291.450 256.541 C 291.697 256.493,291.495 256.454,291.000 256.454 C 290.505 256.454,290.303 256.493,290.550 256.541 M296.550 256.541 C 296.798 256.589,297.203 256.589,297.450 256.541 C 297.697 256.493,297.495 256.454,297.000 256.454 C 296.505 256.454,296.303 256.493,296.550 256.541 M209.196 265.350 L 207.500 267.100 209.250 265.404 C 210.213 264.472,211.000 263.684,211.000 263.654 C 211.000 263.509,210.770 263.725,209.196 265.350 M215.992 264.850 C 216.820 265.733,217.000 265.892,217.000 265.742 C 217.000 265.710,216.572 265.282,216.050 264.792 L 215.100 263.900 215.992 264.850 M229.650 271.138 C 229.843 271.188,230.157 271.188,230.350 271.138 C 230.543 271.088,230.385 271.046,230.000 271.046 C 229.615 271.046,229.457 271.088,229.650 271.138 M233.952 271.141 C 234.201 271.189,234.561 271.187,234.752 271.137 C 234.944 271.087,234.740 271.048,234.300 271.050 C 233.860 271.053,233.704 271.094,233.952 271.141 M167.993 275.550 L 166.900 276.700 168.050 275.607 C 168.683 275.006,169.200 274.488,169.200 274.457 C 169.200 274.308,169.009 274.482,167.993 275.550 M137.900 275.400 C 138.330 275.840,138.726 276.200,138.781 276.200 C 138.836 276.200,138.530 275.840,138.100 275.400 C 137.670 274.960,137.274 274.600,137.219 274.600 C 137.164 274.600,137.470 274.960,137.900 275.400 M183.850 276.347 C 184.373 276.388,185.228 276.388,185.750 276.347 C 186.273 276.306,185.845 276.272,184.800 276.272 C 183.755 276.272,183.328 276.306,183.850 276.347 M151.550 281.941 C 151.797 281.989,152.203 281.989,152.450 281.941 C 152.697 281.893,152.495 281.854,152.000 281.854 C 151.505 281.854,151.303 281.893,151.550 281.941 M153.450 281.943 C 153.753 281.989,154.248 281.989,154.550 281.943 C 154.853 281.897,154.605 281.860,154.000 281.860 C 153.395 281.860,153.148 281.897,153.450 281.943 M295.292 298.050 L 294.300 299.100 295.350 298.108 C 295.928 297.562,296.400 297.089,296.400 297.058 C 296.400 296.908,296.215 297.074,295.292 298.050 M99.900 300.600 C 101.547 302.250,102.940 303.600,102.995 303.600 C 103.050 303.600,101.747 302.250,100.100 300.600 C 98.453 298.950,97.060 297.600,97.005 297.600 C 96.950 297.600,98.253 298.950,99.900 300.600 M289.892 303.450 L 288.900 304.500 289.950 303.508 C 290.528 302.962,291.000 302.489,291.000 302.458 C 291.000 302.308,290.815 302.474,289.892 303.450 M104.400 304.863 C 104.400 304.897,104.692 305.190,105.050 305.513 L 105.700 306.100 105.113 305.450 C 104.565 304.844,104.400 304.708,104.400 304.863 M186.952 340.341 C 187.201 340.389,187.561 340.387,187.752 340.337 C 187.944 340.287,187.740 340.248,187.300 340.250 C 186.860 340.253,186.704 340.294,186.952 340.341 M205.152 340.341 C 205.401 340.389,205.761 340.387,205.952 340.337 C 206.144 340.287,205.940 340.248,205.500 340.250 C 205.060 340.253,204.904 340.294,205.152 340.341 M190.346 340.544 C 190.701 340.589,191.331 340.589,191.746 340.546 C 192.160 340.503,191.870 340.467,191.100 340.466 C 190.330 340.465,189.990 340.500,190.346 340.544 M201.150 340.545 C 201.508 340.589,202.093 340.589,202.450 340.545 C 202.808 340.500,202.515 340.464,201.800 340.464 C 201.085 340.464,200.793 340.500,201.150 340.545 " stroke="none" fill="#d4786f" fill-rule="evenodd"></path></g></svg>
